# xmcd
# Track frame offsets:
# 150
# 2784
# 17600
# 38444
# 55411
# 77699
# 93483
# 114613
# 133208
# 148006
# 167969
# 188506
# 224832
# 242581
# 261948
#
# Disc length: 3829 seconds
# Revision: 0
# Processed by: cddbd v1.5.2PL0 Copyright (c) Steve Scherf et al.
# Submitted via: VisiTrax 2.11.2.271 - For more info visit www.synapsa.com
#
DISCID=d20ef30f
DTITLE=Dos Amigos Band - Live at the Friendly Bar Bistro
DYEAR=2012
DGENRE=Country
TTITLE0=Introduction
TTITLE1=Me and Bobby McGee
TTITLE2=Switchblades
TTITLE3=Landslide
TTITLE4=Tumbleweed Wind
TTITLE5=I Miss My Mary
TTITLE6=Angel From Montgomery
TTITLE7=Feel the Beat
TTITLE8=Dance, The
TTITLE9=Your Name on a Grain of Rice
TTITLE10=Leather and Lace
TTITLE11=You Can't Always Get What You Want/Walk on the Wild Side (Medley)
TTITLE12=Stray Cat Strut
TTITLE13=Moondance
TTITLE14=Weight, The
EXTD=Submitted by Larry@LosSenderosStudio.com
EXTT0=
EXTT1=
EXTT2=
EXTT3=
EXTT4=
EXTT5=
EXTT6=
EXTT7=
EXTT8=
EXTT9=
EXTT10=
EXTT11=
EXTT12=
EXTT13=
EXTT14=
PLAYORDER=
